<svg xmlns="http://www.w3.org/2000/svg" width="394" height="44" viewBox="0 0 394 44" fill="none"><g clip-path="url(#clip0_3853_3334)"><path d="M18.671 37.1538H0V42.7477H18.671V37.1538Z" fill="white"></path><path d="M18.671 27.9697H0V33.5637H18.671V27.9697Z" fill="white"></path><path d="M31.3676 35.9014L22.0459 38.4061V44L31.3676 41.4953V44L40.7169 41.4953V35.9014L31.3676 38.4061V35.9014Z" fill="white"></path><path d="M31.3676 29.222V26.7173L22.0459 29.222V34.8438L31.3676 32.3112V34.8438L40.7169 32.3112V26.7173L31.3676 29.222Z" fill="white"></path><path d="M30.7311 23.2663H40.7167V17.6724H30.7311L39.3889 12.6629L36.5952 7.82037L27.965 12.8299L32.944 4.14674L28.131 1.33586L23.1244 10.0468V0H17.5646V10.0468L12.5857 1.33586L7.77268 4.14674L12.7516 12.8299L4.12145 7.82037L1.32772 12.6629L9.98554 17.6724H0V23.2663H9.98554H30.7311Z" fill="white"></path><path d="M60.8262 28.0252V18.3402C60.8262 11.4383 63.6752 7.56982 71.2266 7.56982H81.0185C88.5699 7.56982 91.419 11.4661 91.419 18.3402V18.702C91.419 19.2865 91.1147 19.5926 90.5338 19.5926H87.989C87.4082 19.5926 87.1039 19.3143 87.1039 18.8968V18.2289C87.1039 13.1916 85.4443 11.7722 80.9909 11.7722H71.199C66.7732 11.7722 65.0859 13.1916 65.0859 18.2289V28.1644C65.0859 33.146 66.8009 34.5654 71.199 34.5654H80.9909C85.3889 34.5654 87.1039 33.146 87.1039 28.1644V27.1903C87.1039 26.6059 87.4082 26.2997 87.989 26.2997H90.5338C91.1147 26.2997 91.419 26.6059 91.419 27.1347V28.0252C91.419 34.8715 88.5699 38.7678 81.0185 38.7678H71.2266C63.6752 38.7678 60.8262 34.8715 60.8262 28.0252Z" fill="white"></path><path d="M94.8213 28.9435V23.6C94.8213 17.199 96.5916 13.915 103.922 13.915H111.224C118.554 13.915 120.325 17.199 120.325 23.6V28.9435C120.325 35.5393 118.554 38.7677 111.224 38.7677H103.922C96.5916 38.7677 94.8213 35.5393 94.8213 28.9435ZM111.141 34.8157C115.235 34.8157 116.203 33.8417 116.203 29.2775V23.2661C116.203 18.8132 115.235 17.8391 111.141 17.8391H104.032C99.9385 17.8391 98.9704 18.8132 98.9704 23.2661V29.2775C98.9704 33.8417 99.9385 34.8157 104.032 34.8157H111.141Z" fill="white"></path><path d="M162.009 23.7114V37.9049C162.009 38.4894 161.705 38.7955 161.124 38.7955H158.745C158.164 38.7955 157.86 38.4894 157.86 37.9049V23.3774C157.86 18.8132 156.836 17.8391 152.798 17.8391H150.281C146.823 17.8391 145.219 18.6462 145.219 23.3774V37.9049C145.219 38.4894 144.915 38.7955 144.334 38.7955H141.955C141.374 38.7955 141.07 38.4894 141.07 37.9049V23.3774C141.07 18.8132 140.102 17.8391 136.063 17.8391H133.546C130.088 17.8391 128.484 18.6462 128.484 23.3774V37.8771C128.484 38.4615 128.18 38.7677 127.599 38.7677H125.22C124.639 38.7677 124.335 38.4615 124.335 37.8771V14.8056C124.335 14.2212 124.639 13.915 125.22 13.915H127.599C128.18 13.915 128.484 14.2212 128.484 14.8056V17.1434C129.452 14.9726 131.471 13.915 135.482 13.915H136.45C140.627 13.915 143.089 14.9726 144.278 17.5052C145.468 15.1117 147.847 13.915 152.023 13.915H152.992C160.1 13.915 161.954 17.1434 161.954 23.7392L162.009 23.7114Z" fill="white"></path><path d="M203.915 23.7114V37.9049C203.915 38.4894 203.611 38.7955 203.03 38.7955H200.651C200.07 38.7955 199.766 38.4894 199.766 37.9049V23.3774C199.766 18.8132 198.743 17.8391 194.704 17.8391H192.187C188.729 17.8391 187.125 18.6462 187.125 23.3774V37.9049C187.125 38.4894 186.821 38.7955 186.24 38.7955H183.861C183.28 38.7955 182.976 38.4894 182.976 37.9049V23.3774C182.976 18.8132 182.008 17.8391 177.969 17.8391H175.452C171.995 17.8391 170.39 18.6462 170.39 23.3774V37.8771C170.39 38.4615 170.086 38.7677 169.505 38.7677H167.126C166.545 38.7677 166.241 38.4615 166.241 37.8771V14.8056C166.241 14.2212 166.545 13.915 167.126 13.915H169.505C170.086 13.915 170.39 14.2212 170.39 14.8056V17.1434C171.358 14.9726 173.378 13.915 177.388 13.915H178.357C182.533 13.915 184.995 14.9726 186.185 17.5052C187.374 15.1117 189.753 13.915 193.93 13.915H194.898C202.007 13.915 203.86 17.1434 203.86 23.7392L203.915 23.7114Z" fill="white"></path><path d="M207.732 28.9435V23.6C207.732 17.199 209.503 13.915 216.833 13.915H223.029C230.359 13.915 232.129 17.199 232.129 23.6V27.5798C232.129 28.1642 231.825 28.4704 231.244 28.4704H211.882V29.3053C211.882 33.8695 212.85 34.8436 216.943 34.8436H229.28C229.861 34.8436 230.165 35.1497 230.165 35.7341V37.9049C230.165 38.4894 229.861 38.7955 229.28 38.7955H216.86C209.53 38.7955 207.76 35.5672 207.76 28.9713L207.732 28.9435ZM227.98 24.6854V23.2661C227.98 18.8132 227.012 17.8391 222.918 17.8391H216.888C212.794 17.8391 211.826 18.8132 211.826 23.2661V24.6854H227.952H227.98Z" fill="white"></path><path d="M258.214 38.7398H254.922C254.48 38.7398 254.12 38.6007 253.816 38.2667L245.822 28.8878L237.828 38.2667C237.524 38.6285 237.164 38.7398 236.721 38.7398H233.43C232.683 38.7398 232.462 38.2111 232.96 37.6266L243.249 25.8821L233.762 15.0004C233.291 14.416 233.485 13.8872 234.232 13.8872H237.524C237.966 13.8872 238.326 14.0264 238.63 14.3603L245.822 22.8486L253.014 14.3603C253.318 13.9985 253.677 13.8872 254.12 13.8872H257.412C258.159 13.8872 258.435 14.416 257.937 15.0004L248.45 25.8821L258.684 37.6266C259.154 38.2111 258.961 38.7398 258.214 38.7398Z" fill="white"></path><path d="M281.697 37.8772V11.7444H271.103C270.522 11.7444 270.218 11.4383 270.218 10.8538V8.43257C270.218 7.84813 270.522 7.54199 271.103 7.54199H296.634C297.215 7.54199 297.519 7.84813 297.519 8.43257V10.8538C297.519 11.4383 297.215 11.7444 296.634 11.7444H286.04V37.8772C286.04 38.4617 285.735 38.7678 285.155 38.7678H282.554C281.974 38.7678 281.669 38.4617 281.669 37.8772H281.697Z" fill="white"></path><path d="M295.749 28.9435V23.6C295.749 17.199 297.519 13.915 304.849 13.915H311.045C318.376 13.915 320.146 17.199 320.146 23.6V27.5798C320.146 28.1642 319.842 28.4704 319.261 28.4704H299.898V29.3053C299.898 33.8695 300.866 34.8436 304.96 34.8436H317.297C317.878 34.8436 318.182 35.1497 318.182 35.7341V37.9049C318.182 38.4894 317.878 38.7955 317.297 38.7955H304.877C297.547 38.7955 295.777 35.5672 295.777 28.9713L295.749 28.9435ZM315.997 24.6854V23.2661C315.997 18.8132 315.029 17.8391 310.935 17.8391H304.905C300.811 17.8391 299.843 18.8132 299.843 23.2661V24.6854H315.969H315.997Z" fill="white"></path><path d="M323.299 28.9435V23.6C323.299 17.199 325.069 13.915 332.399 13.915H339.702C346.34 13.915 348.608 16.4476 348.802 22.8765C348.802 23.4887 348.498 23.7949 347.917 23.7949H345.538C344.957 23.7949 344.653 23.4887 344.653 22.8765C344.515 18.7297 343.602 17.8391 339.591 17.8391H332.482C328.388 17.8391 327.42 18.8132 327.42 23.2661V29.2775C327.42 33.8417 328.388 34.8157 332.482 34.8157H339.591C343.685 34.8157 344.542 33.8417 344.653 29.6949C344.653 29.0827 344.957 28.7765 345.538 28.7765H347.917C348.498 28.7765 348.802 29.0827 348.802 29.6949C348.581 36.3742 346.257 38.7677 339.702 38.7677H332.399C325.069 38.7677 323.299 35.5393 323.299 28.9435Z" fill="white"></path><path d="M376.851 23.7114V37.9049C376.851 38.4894 376.546 38.7955 375.965 38.7955H373.587C373.006 38.7955 372.701 38.4894 372.701 37.9049V23.3774C372.701 18.8132 371.733 17.8391 367.639 17.8391H361.388C357.958 17.8391 356.382 18.6462 356.382 23.3774V37.8771C356.382 38.4615 356.077 38.7677 355.496 38.7677H353.118C352.537 38.7677 352.232 38.4615 352.232 37.8771V6.09468C352.232 5.51024 352.537 5.2041 353.118 5.2041H355.496C356.077 5.2041 356.382 5.51024 356.382 6.09468V17.1434C357.35 14.9726 359.314 13.915 363.324 13.915H367.722C375.053 13.915 376.823 17.1434 376.823 23.7392L376.851 23.7114Z" fill="white"></path><path d="M383.379 11.9947V6.12251H381.249V5.2041H386.422V6.12251H384.375V11.9947H383.379ZM387.39 11.9947V5.2041H388.8L390.681 10.6032L392.618 5.2041H394.028V11.9947H393.005V6.59563L391.152 11.9947H390.266L388.413 6.62346V11.9947H387.39Z" fill="white"></path></g><defs><clipPath id="clip0_3853_3334"><rect width="394" height="44" fill="white"></rect></clipPath></defs></svg>